<svg width="28" height="35" viewBox="0 0 28 35" fill="none" xmlns="http://www.w3.org/2000/svg">
<path d="M0.00327549 21.037C-0.0327197 14.7537 4.64338 8.65672 11.345 7.35559C16.3975 6.37158 20.5958 3.79222 24.4735 0.545948C24.9185 0.173264 25.6712 0.173265 26.2831 0C26.3976 0.552487 26.6954 1.14421 26.5972 1.65746C25.5697 6.97964 25.9166 12.1122 27.4447 17.3886C29.6961 25.1463 24.876 32.8811 17.0617 34.6563C9.49946 36.3759 1.74086 31.4656 0.445027 23.8975C0.281413 22.9495 0.147253 21.9949 0 21.0435L0.00327549 21.037ZM8.57667 11.1543C7.66697 11.8572 6.9438 12.3214 6.33516 12.9033C3.74023 15.3846 2.54912 18.5067 2.82072 22.021C3.01378 24.5546 4.16235 26.8169 5.79522 28.8241C7.40192 30.7987 11.2567 31.8742 13.6258 30.9458C15.5238 30.2004 16.5709 28.7587 16.7738 26.8267C17.0061 24.6265 16.7542 22.5343 14.5421 21.207C10.8804 19.0167 8.85155 15.7802 8.57995 11.1511L8.57667 11.1543Z" fill="#FAB242"/>
</svg>
