<svg width="226" height="87" viewBox="0 0 226 87" fill="none" xmlns="http://www.w3.org/2000/svg">
<g clip-path="url(#clip0_234_2)">
<path d="M25.5261 6.86155C29.6106 6.83035 33.5672 7.56362 37.3305 9.01455C40.1303 10.0942 40.386 11.517 40.1927 14.0944C40.0804 15.5765 38.1037 17.3582 36.286 17.9043C33.0402 18.8778 29.8195 18.4098 26.6267 17.7919C20.3879 16.5844 15.2589 19.5986 12.8457 25.3243C10.6258 30.5883 10.9874 36.0581 13.2635 41.2066C15.2465 45.6936 18.9412 48.5455 23.6398 49.9715C28.669 51.4973 33.3832 50.608 37.8012 47.8747C39.0048 47.1289 40.174 46.3176 41.4211 45.6593C42.6589 45.0071 43.931 45.0789 44.9163 46.1741C46.073 47.4628 47.3794 48.7016 48.1807 50.1993C49.2252 52.1432 48.533 54.1964 46.7215 55.4539C43.5257 57.6693 40.0524 59.2419 36.1394 59.6631C34.0099 59.8909 31.8586 60.3527 29.7415 60.2404C22.0622 59.8316 14.6759 58.2652 8.22186 53.7533C3.51073 50.4583 0.991482 45.9026 0.274368 40.1863C-0.42092 34.6415 0.208893 29.3121 2.17628 24.1261C5.39394 15.6483 11.081 9.7759 20.0231 7.39824C20.1696 7.35768 20.3193 7.31399 20.472 7.29839C22.1557 7.14862 23.8425 7.00508 25.5261 6.86155Z" fill="#1F4587"/>
<path d="M107.24 31.1998C109.282 29.6709 111.181 28.3198 113.002 26.872C115.053 25.2401 117.276 24.0294 119.874 23.5301C121.517 23.2119 124.638 24.8219 125.268 26.3696C125.907 27.9391 124.953 28.8939 123.868 29.6646C122.137 30.894 120.323 32.0049 118.53 33.1438C116.868 34.1984 115.191 35.2219 113.544 36.2453C117.47 39.6496 121.352 42.9852 125.199 46.3582C127.363 48.2553 129.439 50.2492 131.622 52.1214C133.084 53.3757 132.613 54.7986 131.762 55.8033C131.092 56.5928 130.34 57.3198 129.57 58.0125C127.943 59.4728 125.848 59.2013 123.743 57.3697C119.11 53.3352 114.461 49.3194 109.809 45.3129C109.394 44.9572 108.896 44.7013 108.275 44.2926C108.219 44.7825 108.116 45.1569 108.144 45.522C108.44 49.5565 108.78 53.5848 109.051 57.6193C109.161 59.2044 108.334 60.646 106.579 60.6055C105.75 60.5867 104.917 60.6023 104.088 60.6023C102.049 60.6023 101.045 59.9034 100.677 57.9189C99.888 53.6347 99.0773 49.3506 98.5099 45.0352C98.0173 41.2846 97.746 37.4935 97.562 33.7148C97.2658 27.6364 96.9665 21.5488 96.9728 15.4642C96.9759 11.6918 97.4654 7.90996 97.8769 4.14689C98.1731 1.42599 99.9597 0.149791 103.311 0.13731C107.92 0.118588 107.561 -0.411862 107.502 4.22801C107.455 7.84131 107.315 11.4546 107.199 15.0679C107.109 17.9011 106.962 20.7344 106.9 23.5707C106.85 25.7549 106.885 27.9391 106.9 30.1233C106.9 30.3542 107.04 30.5851 107.24 31.2061V31.1998Z" fill="#1F4587"/>
<path d="M191.79 39.868C190.499 36.7727 189.324 34.4793 188.607 32.0486C188.124 30.4136 188.813 28.9002 190.474 27.9142C193.305 26.2355 196.233 25.7144 199.332 26.9251C201.275 27.6833 202.316 29.1498 202.251 31.3153C202.216 32.5041 202.244 33.693 202.244 35.2219C204.162 35.3717 206.017 35.6026 207.875 35.6369C209.637 35.6712 211.492 34.2858 211.891 32.8567C212.318 31.3309 211.47 29.802 209.855 28.4915C206.051 25.4024 202.229 22.3258 198.612 19.0245C195.716 16.3816 194.459 10.1473 196.913 6.46843C199.086 3.21084 202.188 1.33554 205.877 0.461862C210.984 -0.745692 215.589 0.377614 219.408 4.06892C221.348 5.94422 223.268 7.86632 224.977 9.95067C226.414 11.7043 226.258 13.8448 224.983 15.2427C223.602 16.7529 220.559 17.3114 218.987 15.9884C217.382 14.6374 216.082 12.9118 214.71 11.2955C211.819 7.90064 208.599 6.93023 205.509 10.1067C204.636 11.0053 204.483 12.0288 205.032 13.1927C205.933 15.1085 207.564 16.3161 209.141 17.5891C212.197 20.0542 215.346 22.4194 218.211 25.0903C219.44 26.2386 220.319 27.9548 220.88 29.5773C222.009 32.8443 220.468 35.5932 218.598 38.1519C215.489 42.4111 211.031 43.7403 206.048 43.731C204.125 43.731 202.204 43.3347 200.274 43.2598C199.844 43.2442 199.223 43.7091 198.977 44.1241C197.58 46.4675 196.308 48.8857 194.914 51.229C194.107 52.5863 192.909 53.0107 191.578 52.2026C189.854 51.1541 188.217 49.9123 186.742 48.5393C186.374 48.1992 186.49 46.8263 186.873 46.2771C188.557 43.8839 190.421 41.6185 191.79 39.8618V39.868Z" fill="#1F4587"/>
<path d="M148.704 58.1061C139.628 58.1311 133.95 52.7299 131.874 44.6233C130.91 40.8603 130.234 36.9537 130.025 33.0783C129.697 27.0249 132.351 20.5971 139.248 18.1227C143.276 16.678 147.22 17.1336 150.905 19.3802C154.279 21.4365 156.985 24.1761 159.049 27.5366C160.228 29.4556 161.123 31.7241 160.359 33.7803C159.735 35.4591 158.192 37.0192 156.677 38.1019C152.813 40.8603 148.732 43.3159 144.747 45.9089C142.708 47.235 142.73 48.3583 144.704 49.7157C147.681 51.7626 150.712 51.1323 153.743 49.9528C154.824 49.5316 155.8 48.8014 156.904 48.4769C157.468 48.3115 158.541 48.5144 158.815 48.9294C160.536 51.5286 160.399 55.1887 156.991 56.3869C154.344 57.3167 151.544 57.8191 148.813 58.5149C148.779 58.3776 148.745 58.2434 148.713 58.1061H148.704ZM137.155 32.6258C137.586 34.3295 137.969 36.0425 138.459 37.7275C138.839 39.0411 139.743 38.985 140.725 38.3859C141.633 37.8367 142.512 37.2439 143.422 36.6978C145.97 35.1626 148.539 33.6711 151.067 32.1047C152.346 31.3122 152.402 30.6101 151.376 29.5149C150.622 28.7099 149.889 27.858 149.022 27.184C146.615 25.3087 143.931 24.5911 141.087 26.0483C138.499 27.3713 137.243 29.596 137.159 32.6227L137.155 32.6258Z" fill="#1F4587"/>
<path d="M66.7575 27.9516C66.4208 32.2046 65.8938 35.8865 63.677 39.2252C59.7422 45.1475 51.8976 45.9276 47.1709 41.9087C43.6945 38.9537 42.0825 35.2219 41.7552 30.7942C41.3311 25.084 43.3889 20.2632 46.9589 15.9353C47.9192 14.7715 48.6239 13.4017 49.5187 12.1785C51.6264 9.29848 55.5362 9.70412 58.255 11.2362C62.9412 13.876 64.9055 18.4253 66.0466 23.3991C66.4208 25.031 66.5704 26.7128 66.7606 27.9547L66.7575 27.9516ZM54.1581 33.7928C56.2564 33.7959 57.4662 32.8348 57.9588 30.7973C58.8287 27.1902 57.435 24.1386 55.4894 21.2898C55.2275 20.9091 53.8432 20.7281 53.5657 21.0183C52.0941 22.5535 50.4821 24.1012 49.5187 25.9577C47.0524 30.7131 49.7494 33.6305 54.1581 33.7959V33.7928Z" fill="#1F4587"/>
<path d="M93.8203 28.9033C93.68 32.0298 93.1437 35.5807 91.1451 38.8102C87.042 45.4408 78.4522 46.0587 73.7099 41.3283C69.5631 37.1939 68.4001 32.3169 69.1204 26.6723C69.6691 22.3569 71.7862 18.9027 74.3958 15.6264C74.8666 15.0336 75.4528 14.4595 75.7022 13.773C76.8652 10.5716 80.6191 9.38898 83.9865 10.6215C86.8674 11.6762 88.8317 13.6388 90.3376 16.0726C92.6448 19.8014 93.8016 23.9295 93.8203 28.9033ZM85.4675 29.337C85.2149 26.2417 84.5757 23.8234 83.0791 21.6954C82.2217 20.4754 81.3737 20.3506 80.2606 21.3179C78.1435 23.1588 76.5628 25.3493 75.8862 28.1357C75.4123 30.0921 76.332 32.0704 78.2807 33.0595C80.7688 34.3232 83.2195 34.1547 84.3731 32.3762C85.0278 31.3683 85.2211 30.0578 85.4675 29.3339V29.337Z" fill="#1F4587"/>
<path d="M172.856 23.7953C176.192 21.3428 179.135 19.1274 182.135 16.99C184.324 15.4298 188.835 16.3784 190.322 18.6156C190.955 19.5704 190.669 20.3786 189.902 21.0276C187.919 22.7095 185.889 24.332 183.887 25.992C181.022 28.3697 178.15 30.7411 175.313 33.1562C174.297 34.0236 173.819 35.1594 173.872 36.5511C174.016 40.1613 174.081 43.7746 174.203 47.3847C174.281 49.7 174.462 52.0121 174.493 54.3274C174.53 57.0358 173.742 57.7909 171.101 57.7909C170.009 57.7909 168.912 57.8814 167.833 57.7691C166.037 57.5818 165.435 57.1169 165.464 55.3228C165.495 53.1947 165.51 51.0636 165.464 48.9386C165.395 45.8964 165.301 42.8541 165.149 39.818C164.99 36.6416 164.993 33.4277 164.46 30.3105C164.032 27.8174 163.069 25.3742 162.056 23.034C160.462 19.352 161.809 15.7668 165.442 14.6435C167.434 14.0288 169.891 14.9431 171.094 16.6467C172.504 18.6375 173.208 20.7998 172.859 23.7953H172.856Z" fill="#1F4587"/>
<path d="M163.484 73.6794C163.449 67.6822 167.905 61.8629 174.29 60.621C179.104 59.6818 183.104 57.2199 186.799 54.1214C187.223 53.7657 187.94 53.7657 188.523 53.6003C188.632 54.1277 188.916 54.6924 188.823 55.1823C187.844 60.2622 188.174 65.161 189.63 70.1972C191.775 77.6016 187.183 84.9842 179.737 86.6786C172.532 88.3198 165.139 83.6332 163.904 76.4097C163.749 75.5048 163.621 74.5937 163.48 73.6857L163.484 73.6794ZM171.652 64.2468C170.786 64.9176 170.097 65.3607 169.517 65.9161C167.044 68.2844 165.909 71.2643 166.168 74.6186C166.352 77.0369 167.446 79.1961 169.002 81.112C170.533 82.9966 174.206 84.0232 176.463 83.137C178.272 82.4256 179.269 81.0496 179.463 79.2055C179.684 77.1055 179.444 75.1085 177.336 73.8417C173.847 71.7511 171.914 68.662 171.656 64.2437L171.652 64.2468Z" fill="#FAB242"/>
</g>
<defs>
<clipPath id="clip0_234_2">
<rect width="226" height="87" fill="white"/>
</clipPath>
</defs>
</svg>
