<svg width="100" height="112" viewBox="0 0 100 112" fill="none" xmlns="http://www.w3.org/2000/svg">
<path d="M85.6305 38.9755C88.1741 44.2908 89.4962 50.1078 89.5 56.0003C89.5034 61.5147 88.3434 66.9665 86.0971 72H13.8741C11.5357 66.7115 10.3863 60.9727 10.5089 55.1889C10.6337 49.2977 12.0751 43.509 14.7273 38.2471C17.3794 32.9852 21.1753 28.3834 25.8367 24.7788C30.498 21.1741 35.9068 18.6581 41.6667 17.4149C47.4266 16.1718 53.3916 16.2331 59.1248 17.5943C64.8579 18.9555 70.2139 21.5821 74.8002 25.2818C79.3865 28.9814 83.087 33.6603 85.6305 38.9755Z" fill="#FFF9F0" stroke="#FAB242"/>
<path d="M10.49 72.5H88.49" stroke="#FAB242" stroke-linecap="round" stroke-linejoin="round"/>
<path d="M5.98999 72.5H8.48999" stroke="#FAB242" stroke-linecap="round" stroke-linejoin="round"/>
<path d="M90.49 72.5H92.99" stroke="#FAB242" stroke-linecap="round" stroke-linejoin="round"/>
<path d="M22.8843 87.76C23.1523 87.7109 23.4663 87.6618 23.8257 87.6132C25.2675 87.4184 27.3663 87.2415 29.9743 87.0924C35.1866 86.7946 42.3941 86.61 50.36 86.61C58.3258 86.61 65.5334 86.7946 70.7456 87.0924C73.3536 87.2415 75.4525 87.4184 76.8943 87.6132C77.2537 87.6618 77.5677 87.7109 77.8357 87.76C77.5677 87.8091 77.2537 87.8582 76.8943 87.9067C75.4525 88.1016 73.3536 88.2785 70.7456 88.4275C65.5334 88.7254 58.3258 88.91 50.36 88.91C42.3941 88.91 35.1866 88.7254 29.9743 88.4275C27.3663 88.2785 25.2675 88.1016 23.8257 87.9067C23.4663 87.8582 23.1523 87.8091 22.8843 87.76Z" fill="#FFF9F0" stroke="#FAB242"/>
<path d="M35.8899 33.51H64.2799C65.2188 33.51 65.9799 34.2711 65.9799 35.21V72.15C65.9799 73.0889 65.2188 73.85 64.2799 73.85H35.8899C34.9511 73.85 34.1899 73.0889 34.1899 72.15V35.21C34.1899 34.2711 34.9511 33.51 35.8899 33.51Z" fill="#FAB242" fill-opacity="0.13" stroke="#FAB242"/>
<path d="M64.2799 33.01H35.8899C34.6749 33.01 33.6899 33.995 33.6899 35.21V72.15C33.6899 73.365 34.6749 74.35 35.8899 74.35H64.2799C65.495 74.35 66.4799 73.365 66.4799 72.15V35.21C66.4799 33.995 65.495 33.01 64.2799 33.01Z" stroke="#FAB242" stroke-linecap="round" stroke-linejoin="round"/>
<path d="M39.07 37.78H61.11C61.4413 37.78 61.71 38.0487 61.71 38.38V68.97C61.71 69.3014 61.4413 69.57 61.11 69.57H39.07C38.7386 69.57 38.47 69.3014 38.47 68.97V38.38C38.47 38.0487 38.7386 37.78 39.07 37.78Z" fill="white" stroke="#FAB242"/>
<path d="M61.11 37.28H39.07C38.4625 37.28 37.97 37.7725 37.97 38.38V68.97C37.97 69.5775 38.4625 70.07 39.07 70.07H61.11C61.7175 70.07 62.21 69.5775 62.21 68.97V38.38C62.21 37.7725 61.7175 37.28 61.11 37.28Z" stroke="#FAB242" stroke-linecap="round" stroke-linejoin="round"/>
<path d="M42.24 54.39H49.37" stroke="#FAB242" stroke-linecap="round" stroke-linejoin="round"/>
<path d="M56.5 54.39H57.93" stroke="#FAB242" stroke-linecap="round" stroke-linejoin="round"/>
<path d="M42.24 57.24H49.37" stroke="#FAB242" stroke-linecap="round" stroke-linejoin="round"/>
<path d="M56.5 57.24H57.93" stroke="#FAB242" stroke-linecap="round" stroke-linejoin="round"/>
<path d="M42.24 60.09H49.37" stroke="#FAB242" stroke-linecap="round" stroke-linejoin="round"/>
<path d="M56.5 60.09H57.93" stroke="#FAB242" stroke-linecap="round" stroke-linejoin="round"/>
<path d="M42.24 62.94H49.37" stroke="#FAB242" stroke-linecap="round" stroke-linejoin="round"/>
<path d="M56.5 62.94H57.93" stroke="#FAB242" stroke-linecap="round" stroke-linejoin="round"/>
<path d="M42.24 65.8H49.37" stroke="#FAB242" stroke-linecap="round" stroke-linejoin="round"/>
<path d="M56.5 65.8H57.93" stroke="#FAB242" stroke-linecap="round" stroke-linejoin="round"/>
<path d="M45.1001 42.99H57.9301" stroke="#FAB242" stroke-linecap="round" stroke-linejoin="round"/>
<path d="M42.24 45.84H57.93" stroke="#FAB242" stroke-linecap="round" stroke-linejoin="round"/>
<path d="M42.24 48.69H57.93" stroke="#FAB242" stroke-linecap="round" stroke-linejoin="round"/>
<path d="M42.24 51.54H57.93" stroke="#FAB242" stroke-linecap="round" stroke-linejoin="round"/>
<path d="M53.15 35.53V36.03H53.65H56.83C56.9088 36.03 56.9868 36.0455 57.0596 36.0757C57.1324 36.1058 57.1985 36.15 57.2543 36.2057C57.31 36.2614 57.3542 36.3276 57.3843 36.4004C57.4145 36.4732 57.43 36.5512 57.43 36.63V38.71C57.43 38.8691 57.3668 39.0217 57.2543 39.1343C57.1417 39.2468 56.9891 39.31 56.83 39.31H43.34C43.1809 39.31 43.0282 39.2468 42.9157 39.1343C42.8032 39.0217 42.74 38.8691 42.74 38.71V36.63C42.74 36.5512 42.7555 36.4732 42.7857 36.4004C42.8158 36.3276 42.86 36.2614 42.9157 36.2057C42.9714 36.15 43.0376 36.1058 43.1104 36.0757C43.1832 36.0455 43.2612 36.03 43.34 36.03H46.52H47.02V35.53V33.7337C47.0646 32.9535 47.4051 32.2194 47.9724 31.6814C48.5427 31.1404 49.2989 30.8389 50.085 30.8389C50.8711 30.8389 51.6272 31.1404 52.1976 31.6814C52.7649 32.2194 53.1054 32.9535 53.15 33.7337V35.53Z" fill="white" stroke="#FAB242"/>
<path d="M53.65 35.53V33.72C53.6016 32.8071 53.2049 31.9476 52.5417 31.3186C51.8784 30.6895 50.9991 30.3389 50.085 30.3389C49.1709 30.3389 48.2916 30.6895 47.6283 31.3186C46.965 31.9476 46.5684 32.8071 46.52 33.72V35.53H43.34C43.1955 35.53 43.0525 35.5584 42.919 35.6137C42.7856 35.669 42.6643 35.75 42.5622 35.8522C42.46 35.9543 42.379 36.0756 42.3237 36.209C42.2684 36.3425 42.24 36.4855 42.24 36.63V38.71C42.24 39.0017 42.3559 39.2815 42.5622 39.4878C42.7685 39.6941 43.0483 39.81 43.34 39.81H56.83C57.1217 39.81 57.4015 39.6941 57.6078 39.4878C57.8141 39.2815 57.93 39.0017 57.93 38.71V36.63C57.93 36.4855 57.9015 36.3425 57.8463 36.209C57.791 36.0756 57.71 35.9543 57.6078 35.8522C57.5057 35.75 57.3844 35.669 57.2509 35.6137C57.1175 35.5584 56.9744 35.53 56.83 35.53H53.65Z" stroke="#FAB242" stroke-linecap="round" stroke-linejoin="round"/>
<path d="M54.141 57.8692L47.3858 61.7286C46.8583 62.0299 46.675 62.7019 46.9763 63.2293L48.7126 66.2683C49.0139 66.7958 49.6859 66.9792 50.2134 66.6778L56.9686 62.8184C57.4961 62.517 57.6794 61.8451 57.3781 61.3176L55.6418 58.2786C55.3405 57.7511 54.6685 57.5678 54.141 57.8692Z" stroke="#FAB242" stroke-linecap="round" stroke-linejoin="round"/>
<path d="M50.3201 63.33L54.0401 61.21" stroke="#FAB242" stroke-linecap="round" stroke-linejoin="round"/>
<path d="M35.7201 82.88C35.8357 82.6612 35.8961 82.4175 35.8961 82.17C35.8961 81.9226 35.8357 81.6788 35.7201 81.46C35.6059 81.2387 35.4381 81.0495 35.232 80.9097C35.0259 80.77 34.788 80.6841 34.5401 80.66C31.5906 80.2553 28.842 78.9369 26.6801 76.89C26.5152 76.7228 26.3139 76.596 26.0918 76.5197C25.8697 76.4434 25.6329 76.4195 25.4001 76.45C25.1682 76.48 24.9467 76.5645 24.7538 76.6966C24.5608 76.8287 24.4019 77.0047 24.2901 77.21L22.7601 79.94C22.5922 80.234 22.5294 80.5765 22.5821 80.9109C22.6348 81.2454 22.7999 81.5519 23.0501 81.78C25.491 83.903 28.369 85.4632 31.4801 86.35C32.049 86.5053 32.6536 86.4655 33.1973 86.2372C33.741 86.0088 34.1926 85.6049 34.4801 85.09L35.7201 82.88Z" fill="#FAB242" fill-opacity="0.13" stroke="#FAB242" stroke-linejoin="round"/>
<path d="M29.2237 82.3628C29.1272 82.4417 29.0095 82.4901 28.8855 82.5021C28.7615 82.514 28.6367 82.4889 28.5269 82.43C28.4172 82.371 28.3273 82.2808 28.2688 82.1708C28.2103 82.0608 28.1858 81.9359 28.1982 81.8119C28.2107 81.6879 28.2597 81.5704 28.3389 81.4743C28.4182 81.3781 28.5242 81.3077 28.6435 81.2717C28.7628 81.2358 28.8901 81.2361 29.0092 81.2725C29.1284 81.3089 29.2341 81.3799 29.3129 81.4764C29.4186 81.6058 29.4686 81.7718 29.4519 81.9381C29.4352 82.1043 29.3531 82.2571 29.2237 82.3628Z" fill="white" stroke="#FAB242"/>
<path d="M27.8899 62.64C28.0101 62.4236 28.075 62.1808 28.0786 61.9333C28.0822 61.6858 28.0245 61.4412 27.9107 61.2214C27.7968 61.0016 27.6303 60.8134 27.426 60.6735C27.2217 60.5337 26.986 60.4466 26.7399 60.42C23.7868 60.0173 21.0344 58.6988 18.8699 56.65C18.7066 56.4817 18.5062 56.3541 18.2846 56.2773C18.0631 56.2005 17.8266 56.1767 17.5942 56.2078C17.3618 56.2389 17.14 56.3241 16.9464 56.4564C16.7529 56.5888 16.5931 56.7647 16.4799 56.97L14.9999 59.7C14.8331 59.9951 14.772 60.3382 14.8265 60.6727C14.8811 61.0072 15.048 61.3132 15.2999 61.54C17.7368 63.6634 20.6116 65.2237 23.7199 66.11C24.2888 66.2652 24.8933 66.2255 25.4371 65.9971C25.9808 65.7688 26.4324 65.3649 26.7199 64.85L27.8899 62.64Z" fill="#FAB242" fill-opacity="0.13" stroke="#FAB242" stroke-linejoin="round"/>
<path d="M21.3936 62.1228C21.2971 62.2017 21.1795 62.2501 21.0554 62.2621C20.9314 62.2741 20.8066 62.249 20.6968 62.19C20.5871 62.131 20.4973 62.0408 20.4388 61.9308C20.3802 61.8208 20.3557 61.6959 20.3682 61.5719C20.3806 61.448 20.4296 61.3305 20.5088 61.2343C20.5881 61.1382 20.6941 61.0677 20.8134 61.0317C20.9327 60.9958 21.06 60.9961 21.1792 61.0325C21.2983 61.0689 21.404 61.1399 21.4828 61.2364C21.5886 61.3658 21.6386 61.5318 21.6218 61.6981C21.6051 61.8643 21.523 62.0171 21.3936 62.1228Z" fill="white" stroke="#FAB242"/>
<path d="M72.0901 71C71.8966 70.8447 71.7449 70.6436 71.6489 70.4148C71.5528 70.186 71.5154 69.9369 71.5401 69.69C71.5659 69.4426 71.6512 69.2051 71.7888 68.9979C71.9263 68.7906 72.1121 68.6198 72.3301 68.5C74.9183 67.0264 76.9786 64.7773 78.2201 62.07C78.3102 61.8551 78.4488 61.664 78.625 61.5116C78.8013 61.3592 79.0105 61.2496 79.2361 61.1915C79.4618 61.1334 79.6978 61.1283 79.9258 61.1766C80.1537 61.2249 80.3674 61.3254 80.5501 61.47L82.9901 63.47C83.2556 63.6812 83.4417 63.9761 83.5179 64.3067C83.5942 64.6372 83.5562 64.9839 83.4101 65.29C81.9374 68.1699 79.8519 70.6924 77.3001 72.68C76.8304 73.0354 76.2554 73.2235 75.6665 73.2145C75.0776 73.2054 74.5086 72.9997 74.0501 72.63L72.0901 71Z" fill="#FAB242" fill-opacity="0.13" stroke="#FAB242" stroke-linejoin="round"/>
<path d="M78.2731 68.0945C78.1553 68.1319 78.0291 68.1339 77.9103 68.1001C77.7493 68.0516 77.6138 67.9417 77.5331 67.794C77.4525 67.6464 77.4333 67.473 77.4795 67.3113C77.5154 67.1931 77.5852 67.0879 77.6803 67.0091C77.776 66.9297 77.8931 66.8805 78.0167 66.8675C78.1403 66.8545 78.2651 66.8784 78.3751 66.9362C78.4852 66.994 78.5758 67.083 78.6353 67.1921C78.6949 67.3012 78.7209 67.4255 78.71 67.5494C78.6991 67.6732 78.6518 67.791 78.574 67.8881C78.4963 67.9851 78.3916 68.0569 78.2731 68.0945Z" fill="white" stroke="#FAB242"/>
<path d="M61.0001 78.73C60.9222 78.4942 60.7874 78.2812 60.6076 78.11C60.4277 77.9387 60.2085 77.8145 59.9691 77.7482C59.7298 77.682 59.4779 77.6758 59.2356 77.7301C58.9933 77.7845 58.7681 77.8978 58.5801 78.06C56.2704 79.9365 53.4306 81.0416 50.4601 81.22C50.2248 81.2242 49.9938 81.2834 49.7854 81.3928C49.5771 81.5022 49.3972 81.6587 49.2601 81.85C49.1259 82.041 49.0373 82.2601 49.0009 82.4906C48.9645 82.7212 48.9813 82.957 49.0501 83.18L50.0501 86.18C50.1601 86.4955 50.3724 86.7652 50.6532 86.9464C50.934 87.1276 51.2672 87.2098 51.6001 87.18C54.8129 86.8564 57.9158 85.8323 60.6901 84.18C61.1927 83.869 61.5769 83.3989 61.7817 82.8444C61.9864 82.29 61.9999 81.683 61.8201 81.12L61.0001 78.73Z" fill="#FAB242" fill-opacity="0.13" stroke="#FAB242" stroke-linejoin="round"/>
<path d="M55.5127 83.6618L55.4371 83.6553L55.3629 83.6716C55.2671 83.6926 55.1677 83.6909 55.0726 83.6666C54.9775 83.6424 54.8894 83.5963 54.8153 83.532C54.7412 83.4677 54.6831 83.387 54.6457 83.2963C54.6083 83.2056 54.5926 83.1075 54.5999 83.0096C54.6071 82.9118 54.6371 82.817 54.6875 82.7328C54.7378 82.6486 54.8072 82.5773 54.8899 82.5246C54.9727 82.472 55.0666 82.4393 55.1643 82.4294C55.2619 82.4194 55.3604 82.4324 55.4521 82.4673L55.521 82.4935L55.5946 82.4987C55.7551 82.5101 55.9049 82.5835 56.0124 82.7033C56.1166 82.8196 56.173 82.9707 56.1707 83.1265C56.1522 83.281 56.0753 83.4228 55.9555 83.5227C55.832 83.6256 55.6729 83.6756 55.5127 83.6618Z" fill="white" stroke="#FAB242"/>
<path d="M70.1506 80.2094C70.432 80.4907 70.59 80.8722 70.59 81.27C70.59 81.6678 70.432 82.0494 70.1506 82.3307C69.8693 82.612 69.4878 82.77 69.09 82.77H62.49C62.0922 82.77 61.7106 82.612 61.4293 82.3307C61.148 82.0494 60.99 81.6678 60.99 81.27C60.99 80.8722 61.148 80.4907 61.4293 80.2094C61.7106 79.9281 62.0922 79.77 62.49 79.77H69.09C69.4878 79.77 69.8693 79.9281 70.1506 80.2094Z" fill="white" stroke="#FAB242"/>
<path d="M71.09 81.27C71.09 80.7396 70.8793 80.2309 70.5042 79.8558C70.1291 79.4807 69.6204 79.27 69.09 79.27H62.49C61.9596 79.27 61.4508 79.4807 61.0758 79.8558C60.7007 80.2309 60.49 80.7396 60.49 81.27C60.49 81.8005 60.7007 82.3092 61.0758 82.6842C61.4508 83.0593 61.9596 83.27 62.49 83.27H69.09C69.6204 83.27 70.1291 83.0593 70.5042 82.6842C70.8793 82.3092 71.09 81.8005 71.09 81.27Z" stroke="#FAB242" stroke-linecap="round" stroke-linejoin="round"/>
<path d="M76.2007 84.1693C76.482 84.4506 76.64 84.8322 76.64 85.23C76.64 85.6278 76.482 86.0093 76.2007 86.2906C75.9194 86.5719 75.5379 86.73 75.14 86.73H68.54C68.1422 86.73 67.7607 86.5719 67.4794 86.2906C67.1981 86.0093 67.04 85.6278 67.04 85.23C67.04 84.8322 67.1981 84.4506 67.4794 84.1693C67.7607 83.888 68.1422 83.73 68.54 83.73H75.14C75.5379 83.73 75.9194 83.888 76.2007 84.1693Z" fill="white" stroke="#FAB242"/>
<path d="M77.14 85.23C77.14 84.6995 76.9293 84.1908 76.5543 83.8158C76.1792 83.4407 75.6705 83.23 75.14 83.23H68.54C68.0096 83.23 67.5009 83.4407 67.1258 83.8158C66.7508 84.1908 66.54 84.6995 66.54 85.23C66.54 85.7604 66.7508 86.2691 67.1258 86.6442C67.5009 87.0193 68.0096 87.23 68.54 87.23H75.14C75.6705 87.23 76.1792 87.0193 76.5543 86.6442C76.9293 86.2691 77.14 85.7604 77.14 85.23Z" stroke="#FAB242" stroke-linecap="round" stroke-linejoin="round"/>
<path d="M66.08 85.23V85.23C66.08 85.6252 65.924 86.0045 65.646 86.2854C65.3685 86.5657 64.9917 86.7254 64.5973 86.73H58C57.6022 86.73 57.2206 86.5719 56.9393 86.2906C56.658 86.0093 56.5 85.6278 56.5 85.23C56.5 84.8322 56.658 84.4506 56.9393 84.1693C57.2206 83.888 57.6022 83.73 58 83.73H64.58C64.9778 83.73 65.3594 83.888 65.6407 84.1693C65.922 84.4506 66.08 84.8322 66.08 85.23Z" fill="white" stroke="#FAB242"/>
<path d="M66.58 85.23C66.58 84.6995 66.3693 84.1908 65.9942 83.8158C65.6191 83.4407 65.1104 83.23 64.58 83.23H58C57.4696 83.23 56.9609 83.4407 56.5858 83.8158C56.2107 84.1908 56 84.6995 56 85.23C56 85.7604 56.2107 86.2691 56.5858 86.6442C56.9609 87.0193 57.4696 87.23 58 87.23H64.6C65.127 87.2247 65.6305 87.0117 66.0013 86.6372C66.3721 86.2627 66.58 85.757 66.58 85.23Z" stroke="#FAB242" stroke-linecap="round" stroke-linejoin="round"/>
<path d="M41.7708 80.2094C42.0521 80.4907 42.2101 80.8722 42.2101 81.27C42.2101 81.6678 42.0521 82.0494 41.7708 82.3307C41.4895 82.612 41.1079 82.77 40.7101 82.77H34.1101C33.7123 82.77 33.3307 82.612 33.0494 82.3307C32.7681 82.0494 32.6101 81.6678 32.6101 81.27C32.6101 80.8722 32.7681 80.4907 33.0494 80.2094C33.3308 79.9281 33.7123 79.77 34.1101 79.77H40.7101C41.1079 79.77 41.4895 79.9281 41.7708 80.2094Z" fill="white" stroke="#FAB242"/>
<path d="M42.7101 81.27C42.7101 80.7396 42.4994 80.2309 42.1243 79.8558C41.7492 79.4807 41.2405 79.27 40.7101 79.27H34.1101C33.5797 79.27 33.071 79.4807 32.6959 79.8558C32.3208 80.2309 32.1101 80.7396 32.1101 81.27C32.1101 81.8005 32.3208 82.3092 32.6959 82.6842C33.071 83.0593 33.5797 83.27 34.1101 83.27H40.7101C41.2405 83.27 41.7492 83.0593 42.1243 82.6842C42.4994 82.3092 42.7101 81.8005 42.7101 81.27Z" stroke="#FAB242" stroke-linecap="round" stroke-linejoin="round"/>
<path d="M44.4107 84.1693C44.692 84.4506 44.85 84.8322 44.85 85.23C44.85 85.6278 44.692 86.0093 44.4107 86.2906C44.1294 86.5719 43.7478 86.73 43.35 86.73H36.75C36.3522 86.73 35.9706 86.5719 35.6893 86.2906C35.408 86.0093 35.25 85.6278 35.25 85.23C35.25 84.8322 35.408 84.4506 35.6893 84.1693C35.9706 83.888 36.3522 83.73 36.75 83.73H43.35C43.7478 83.73 44.1294 83.888 44.4107 84.1693Z" fill="white" stroke="#FAB242"/>
<path d="M45.35 85.23C45.35 84.6995 45.1393 84.1908 44.7642 83.8158C44.3891 83.4407 43.8804 83.23 43.35 83.23H36.75C36.2196 83.23 35.7109 83.4407 35.3358 83.8158C34.9607 84.1908 34.75 84.6995 34.75 85.23C34.75 85.7604 34.9607 86.2691 35.3358 86.6442C35.7109 87.0193 36.2196 87.23 36.75 87.23H43.35C43.8804 87.23 44.3891 87.0193 44.7642 86.6442C45.1393 86.2691 45.35 85.7604 45.35 85.23Z" stroke="#FAB242" stroke-linecap="round" stroke-linejoin="round"/>
<path d="M33.8506 84.1693C34.1319 84.4506 34.2899 84.8322 34.2899 85.23C34.2899 85.6278 34.1319 86.0093 33.8506 86.2906C33.5693 86.5719 33.1878 86.73 32.7899 86.73H26.1899C25.7921 86.73 25.4106 86.5719 25.1293 86.2906C24.848 86.0093 24.6899 85.6278 24.6899 85.23C24.6899 84.8322 24.848 84.4506 25.1293 84.1693C25.4106 83.888 25.7921 83.73 26.1899 83.73H32.7899C33.1878 83.73 33.5693 83.888 33.8506 84.1693Z" fill="white" stroke="#FAB242"/>
<path d="M34.7899 85.23C34.7899 84.6995 34.5792 84.1908 34.2042 83.8158C33.8291 83.4407 33.3204 83.23 32.7899 83.23H26.1899C25.6595 83.23 25.1508 83.4407 24.7757 83.8158C24.4007 84.1908 24.1899 84.6995 24.1899 85.23C24.1899 85.7604 24.4007 86.2691 24.7757 86.6442C25.1508 87.0193 25.6595 87.23 26.1899 87.23H32.7899C33.3204 87.23 33.8291 87.0193 34.2042 86.6442C34.5792 86.2691 34.7899 85.7604 34.7899 85.23Z" stroke="#FAB242" stroke-linecap="round" stroke-linejoin="round"/>
</svg>
